<svg xmlns:dc="http://purl.org/dc/elements/1.1/" xmlns:cc="http://creativecommons.org/ns#" xmlns:rdf="http://www.w3.org/1999/02/22-rdf-syntax-ns#" xmlns:svg="http://www.w3.org/2000/svg" xmlns="http://www.w3.org/2000/svg" xmlns:sodipodi="http://sodipodi.sourceforge.net/DTD/sodipodi-0.dtd" xmlns:inkscape="http://www.inkscape.org/namespaces/inkscape" version="1.1" x="0px" y="0px" viewBox="0 0 100 125"><g transform="translate(0,-952.36218)"><path style="font-size:medium;font-style:normal;font-variant:normal;font-weight:normal;font-stretch:normal;text-indent:0;text-align:start;text-decoration:none;line-height:normal;letter-spacing:normal;word-spacing:normal;text-transform:none;direction:ltr;block-progression:tb;writing-mode:lr-tb;text-anchor:start;baseline-shift:baseline;opacity:1;color:#000000;fill:#000000;fill-opacity:1;stroke:none;stroke-width:3.99999976000000010;marker:none;visibility:visible;display:inline;overflow:visible;enable-background:accumulate;font-family:Sans;-inkscape-font-specification:Sans" d="M 50 11 C 48.983451 11 47.36996 11.0716 45.71875 12.46875 L 6.71875 45.46875 A 2.0001999 2.0001999 0 1 0 9.28125 48.5 L 48.28125 15.5 C 48.536154 15.28431 50.031611 15 50 15 C 49.896987 15 50.429907 15.0126 50.84375 15.125 C 51.257593 15.23743 51.65967 15.45001 51.71875 15.5 L 90.71875 48.5 A 2.0001999 2.0001999 0 1 0 93.28125 45.46875 L 54.28125 12.46875 C 53.463405 11.77673 52.618808 11.48332 51.875 11.28125 C 51.131192 11.07918 50.595482 11 50 11 z M 17.96875 48.625 A 2.0001999 2.0001999 0 0 0 16 50.65625 L 16 87 A 2.0001999 2.0001999 0 0 0 18 89 L 82 89 A 2.0001999 2.0001999 0 0 0 84 87 L 84 50.65625 A 2.0001999 2.0001999 0 1 0 80 50.65625 L 80 85 L 20 85 L 20 50.65625 A 2.0001999 2.0001999 0 0 0 17.96875 48.625 z " transform="translate(0,952.36218)"/></g><text x="0" y="115" fill="#000000" font-size="5px" font-weight="bold" font-family="'Helvetica Neue', Helvetica, Arial-Unicode, Arial, Sans-serif">Created by counloucon</text><text x="0" y="120" fill="#000000" font-size="5px" font-weight="bold" font-family="'Helvetica Neue', Helvetica, Arial-Unicode, Arial, Sans-serif">from the Noun Project</text></svg>